<?xml version="1.0" standalone="no"?>
<!DOCTYPE svg PUBLIC "-//W3C//DTD SVG 1.1//EN" 
  "http://www.w3.org/Graphics/SVG/1.1/DTD/svg11.dtd">
<svg width="4000" height="4000" viewBox="0 0 4000 4000"
     xmlns="http://www.w3.org/2000/svg" version="1.1">
<desc>fish2.blend, (Blender 4.1.1)</desc>
<polygon stroke="black" stroke-width="1" fill="rgb(204, 204, 204)" fill-opacity="0.25" points="2846.320,3558.819 2797.466,3791.246 3102.737,3715.998 " />
<polygon stroke="black" stroke-width="1" fill="rgb(204, 204, 204)" fill-opacity="0.25" points="1758.113,1745.996 2177.755,1483.728 2192.713,1073.259 1580.042,1202.319 " />
<polygon stroke="black" stroke-width="1" fill="rgb(204, 204, 204)" fill-opacity="0.25" points="3323.884,3939.486 3449.041,3328.803 3102.737,3715.998 " />
<polygon stroke="black" stroke-width="1" fill="rgb(204, 204, 204)" fill-opacity="0.25" points="956.891,3251.312 1271.248,3708.097 1745.223,2990.408 " />
<polygon stroke="black" stroke-width="1" fill="rgb(204, 204, 204)" fill-opacity="0.25" points="2895.380,2497.506 2797.466,2971.210 2944.993,2971.487 3088.763,2728.102 " />
<polygon stroke="black" stroke-width="1" fill="rgb(204, 204, 204)" fill-opacity="0.25" points="184.132,3958.891 683.953,3699.601 144.997,3412.508 " />
<polygon stroke="black" stroke-width="1" fill="rgb(204, 204, 204)" fill-opacity="0.25" points="3449.041,3328.803 2846.320,3558.819 3102.737,3715.998 " />
<polygon stroke="black" stroke-width="1" fill="rgb(204, 204, 204)" fill-opacity="0.25" points="2024.850,704.689 1527.726,600.930 1580.042,1202.319 2192.713,1073.259 " />
<polygon stroke="black" stroke-width="1" fill="rgb(204, 204, 204)" fill-opacity="0.25" points="3744.639,1428.360 3208.504,2140.463 3744.639,2279.321 " />
<polygon stroke="black" stroke-width="1" fill="rgb(204, 204, 204)" fill-opacity="0.25" points="1758.113,1745.996 1580.042,1202.319 1527.726,1803.709 " />
<polygon stroke="black" stroke-width="1" fill="rgb(204, 204, 204)" fill-opacity="0.25" points="2225.113,2173.937 2173.972,2908.190 2636.101,2472.245 " />
<polygon stroke="black" stroke-width="1" fill="rgb(204, 204, 204)" fill-opacity="0.25" points="1824.746,2599.680 2173.972,2908.190 2225.113,2173.937 " />
<polygon stroke="black" stroke-width="1" fill="rgb(204, 204, 204)" fill-opacity="0.25" points="766.171,3752.332 1271.248,3708.097 956.891,3251.312 " />
<polygon stroke="black" stroke-width="1" fill="rgb(204, 204, 204)" fill-opacity="0.25" points="3601.633,975.677 3376.365,707.024 2871.033,886.007 " />
<polygon stroke="black" stroke-width="1" fill="rgb(204, 204, 204)" fill-opacity="0.25" points="1713.221,3459.662 1745.223,2990.408 1271.248,3708.097 " />
<polygon stroke="black" stroke-width="1" fill="rgb(204, 204, 204)" fill-opacity="0.25" points="2554.876,3295.391 2508.070,2990.408 2173.205,3215.829 " />
<polygon stroke="black" stroke-width="1" fill="rgb(204, 204, 204)" fill-opacity="0.25" points="3331.591,1619.829 3208.504,2140.463 3744.639,1428.360 " />
<polygon stroke="black" stroke-width="1" fill="rgb(204, 204, 204)" fill-opacity="0.25" points="3331.591,1619.829 2797.466,1769.289 3208.504,2140.463 " />
<polygon stroke="black" stroke-width="1" fill="rgb(204, 204, 204)" fill-opacity="0.25" points="1763.810,2096.058 1237.361,2360.338 1234.700,2908.190 1824.746,2599.680 " />
<polygon stroke="black" stroke-width="1" fill="rgb(204, 204, 204)" fill-opacity="0.25" points="661.556,2848.935 176.158,2299.734 41.109,2775.808 " />
<polygon stroke="black" stroke-width="1" fill="rgb(204, 204, 204)" fill-opacity="0.25" points="683.953,2293.812 176.158,2299.734 661.556,2848.935 " />
<polygon stroke="black" stroke-width="1" fill="rgb(204, 204, 204)" fill-opacity="0.25" points="1745.223,2990.408 1713.221,3459.662 2009.520,3647.084 2173.205,3215.829 " />
<polygon stroke="black" stroke-width="1" fill="rgb(204, 204, 204)" fill-opacity="0.25" points="2009.520,3647.084 2554.876,3295.391 2173.205,3215.829 " />
<polygon stroke="black" stroke-width="1" fill="rgb(204, 204, 204)" fill-opacity="0.25" points="255.847,112.567 41.109,334.137 664.235,442.137 " />
<polygon stroke="black" stroke-width="1" fill="rgb(204, 204, 204)" fill-opacity="0.25" points="1004.167,1346.859 1171.705,1803.710 1445.508,1320.289 " />
<polygon stroke="black" stroke-width="1" fill="rgb(204, 204, 204)" fill-opacity="0.25" points="2177.755,1483.728 2372.656,1436.083 2192.713,1073.259 " />
<polygon stroke="black" stroke-width="1" fill="rgb(204, 204, 204)" fill-opacity="0.25" points="176.158,2299.734 433.010,1885.927 45.257,2147.678 " />
<polygon stroke="black" stroke-width="1" fill="rgb(204, 204, 204)" fill-opacity="0.25" points="683.953,2293.812 433.010,1885.927 176.158,2299.734 " />
<polygon stroke="black" stroke-width="1" fill="rgb(204, 204, 204)" fill-opacity="0.25" points="2225.113,2173.937 1763.810,2096.058 1824.746,2599.680 " />
<polygon stroke="black" stroke-width="1" fill="rgb(204, 204, 204)" fill-opacity="0.25" points="661.556,2848.935 41.109,2775.808 144.997,3412.508 683.953,3699.601 " />
<polygon stroke="black" stroke-width="1" fill="rgb(204, 204, 204)" fill-opacity="0.25" points="92.938,1250.736 295.948,1803.709 701.246,1548.610 467.564,911.861 " />
<polygon stroke="black" stroke-width="1" fill="rgb(204, 204, 204)" fill-opacity="0.25" points="1237.361,2360.338 766.171,2606.581 1234.700,2908.190 " />
<polygon stroke="black" stroke-width="1" fill="rgb(204, 204, 204)" fill-opacity="0.25" points="2252.743,3958.891 2715.247,3648.123 2554.876,3295.391 2009.520,3647.084 " />
<polygon stroke="black" stroke-width="1" fill="rgb(204, 204, 204)" fill-opacity="0.25" points="92.938,1250.736 467.564,911.861 41.109,721.615 " />
<polygon stroke="black" stroke-width="1" fill="rgb(204, 204, 204)" fill-opacity="0.25" points="833.042,1080.197 858.145,585.110 467.564,911.861 " />
<polygon stroke="black" stroke-width="1" fill="rgb(204, 204, 204)" fill-opacity="0.25" points="467.564,911.861 701.246,1548.610 833.042,1080.197 " />
<polygon stroke="black" stroke-width="1" fill="rgb(204, 204, 204)" fill-opacity="0.25" points="3088.763,2728.102 3153.165,3003.344 3270.247,2868.853 3262.164,2818.451 " />
<polygon stroke="black" stroke-width="1" fill="rgb(204, 204, 204)" fill-opacity="0.25" points="3283.598,2877.728 3225.432,3046.289 3491.684,2883.227 3349.387,2841.966 " />
<polygon stroke="black" stroke-width="1" fill="rgb(204, 204, 204)" fill-opacity="0.25" points="3958.891,3958.891 3958.891,3128.507 3449.041,3328.803 3323.884,3939.486 " />
<polygon stroke="black" stroke-width="1" fill="rgb(204, 204, 204)" fill-opacity="0.25" points="41.109,721.615 467.564,911.861 664.235,442.137 41.109,334.137 " />
<polygon stroke="black" stroke-width="1" fill="rgb(204, 204, 204)" fill-opacity="0.25" points="993.409,333.165 940.363,855.260 1199.248,823.314 1445.508,440.397 " />
<polygon stroke="black" stroke-width="1" fill="rgb(204, 204, 204)" fill-opacity="0.25" points="940.363,855.260 1004.167,1346.859 1445.508,1320.289 1199.248,823.314 " />
<polygon stroke="black" stroke-width="1" fill="rgb(204, 204, 204)" fill-opacity="0.25" points="3262.164,2818.451 3329.013,2793.501 3420.285,2634.446 3088.763,2728.102 " />
<polygon stroke="black" stroke-width="1" fill="rgb(204, 204, 204)" fill-opacity="0.25" points="3420.285,2634.446 3329.013,2793.501 3349.387,2841.966 3491.684,2883.227 " />
<polygon stroke="black" stroke-width="1" fill="rgb(204, 204, 204)" fill-opacity="0.25" points="3914.053,3046.289 3798.242,2659.589 3651.792,2750.179 3766.640,3040.506 " />
<polygon stroke="black" stroke-width="1" fill="rgb(204, 204, 204)" fill-opacity="0.25" points="3441.791,2361.538 2895.380,2497.506 3088.763,2728.102 3420.285,2634.446 " />
<polygon stroke="black" stroke-width="1" fill="rgb(204, 204, 204)" fill-opacity="0.25" points="3463.299,1346.142 3601.633,975.677 2871.033,886.007 2797.466,1346.142 " />
<polygon stroke="black" stroke-width="1" fill="rgb(204, 204, 204)" fill-opacity="0.25" points="3441.791,2361.538 3420.285,2634.446 3651.792,2750.179 3798.242,2659.589 " />

</svg>
