<?xml version="1.0" standalone="no"?>
<!DOCTYPE svg PUBLIC "-//W3C//DTD SVG 1.1//EN" 
  "http://www.w3.org/Graphics/SVG/1.1/DTD/svg11.dtd">
<svg width="4000" height="4000" viewBox="0 0 4000 4000"
     xmlns="http://www.w3.org/2000/svg" version="1.1">
<desc>fish2.blend, (Blender 4.1.1)</desc>
<polygon stroke="black" stroke-width="1" fill="rgb(204, 204, 204)" fill-opacity="0.25" points="3417.917,1184.600 3246.067,1076.719 3259.287,1371.048 " />
<polygon stroke="black" stroke-width="1" fill="rgb(204, 204, 204)" fill-opacity="0.25" points="3039.590,1567.358 2821.297,2197.565 3133.132,2171.230 " />
<polygon stroke="black" stroke-width="1" fill="rgb(204, 204, 204)" fill-opacity="0.25" points="2071.694,1612.451 2496.229,1230.743 2028.695,1027.338 " />
<polygon stroke="black" stroke-width="1" fill="rgb(204, 204, 204)" fill-opacity="0.25" points="3039.590,1567.358 3619.560,1706.327 3259.287,1371.048 " />
<polygon stroke="black" stroke-width="1" fill="rgb(204, 204, 204)" fill-opacity="0.25" points="1954.709,1414.622 1468.178,1296.689 1837.976,2041.168 " />
<polygon stroke="black" stroke-width="1" fill="rgb(204, 204, 204)" fill-opacity="0.25" points="1837.976,2041.168 1468.177,1778.123 1577.287,2197.566 " />
<polygon stroke="black" stroke-width="1" fill="rgb(204, 204, 204)" fill-opacity="0.25" points="36.993,3963.007 546.592,3878.949 133.066,3458.337 " />
<polygon stroke="black" stroke-width="1" fill="rgb(204, 204, 204)" fill-opacity="0.25" points="3619.560,1706.327 3417.917,1184.600 3259.287,1371.048 " />
<polygon stroke="black" stroke-width="1" fill="rgb(204, 204, 204)" fill-opacity="0.25" points="133.066,3458.337 756.776,3096.994 205.625,2903.725 " />
<polygon stroke="black" stroke-width="1" fill="rgb(204, 204, 204)" fill-opacity="0.25" points="546.592,3878.949 756.776,3096.994 133.066,3458.337 " />
<polygon stroke="black" stroke-width="1" fill="rgb(204, 204, 204)" fill-opacity="0.25" points="2821.297,36.993 3292.169,746.372 3587.481,298.897 " />
<polygon stroke="black" stroke-width="1" fill="rgb(204, 204, 204)" fill-opacity="0.25" points="2231.515,2191.700 2071.694,1612.451 2028.695,2197.565 " />
<polygon stroke="black" stroke-width="1" fill="rgb(204, 204, 204)" fill-opacity="0.25" points="2231.515,2191.700 2613.444,1837.307 2071.694,1612.451 " />
<polygon stroke="black" stroke-width="1" fill="rgb(204, 204, 204)" fill-opacity="0.25" points="2504.970,1518.609 2496.229,1230.743 2071.694,1612.451 " />
<polygon stroke="black" stroke-width="1" fill="rgb(204, 204, 204)" fill-opacity="0.25" points="2281.767,3729.427 1745.644,3301.237 1828.554,3963.007 " />
<polygon stroke="black" stroke-width="1" fill="rgb(204, 204, 204)" fill-opacity="0.25" points="2082.856,3171.009 1745.644,3301.237 2281.767,3729.427 " />
<polygon stroke="black" stroke-width="1" fill="rgb(204, 204, 204)" fill-opacity="0.25" points="1858.197,1014.443 1468.178,1296.689 1954.709,1414.622 " />
<polygon stroke="black" stroke-width="1" fill="rgb(204, 204, 204)" fill-opacity="0.25" points="1721.716,3155.229 1482.328,2560.371 1468.178,2971.780 " />
<polygon stroke="black" stroke-width="1" fill="rgb(204, 204, 204)" fill-opacity="0.25" points="1761.189,2377.339 1482.328,2560.371 1721.716,3155.229 " />
<polygon stroke="black" stroke-width="1" fill="rgb(204, 204, 204)" fill-opacity="0.25" points="1468.177,1778.123 1837.976,2041.168 1468.178,1296.689 " />
<polygon stroke="black" stroke-width="1" fill="rgb(204, 204, 204)" fill-opacity="0.25" points="1835.152,843.110 2108.143,940.457 2081.978,564.646 " />
<polygon stroke="black" stroke-width="1" fill="rgb(204, 204, 204)" fill-opacity="0.25" points="2887.999,474.480 3292.169,746.372 2821.297,36.993 " />
<polygon stroke="black" stroke-width="1" fill="rgb(204, 204, 204)" fill-opacity="0.25" points="2887.999,474.480 2821.297,1002.733 3292.169,746.372 " />
<polygon stroke="black" stroke-width="1" fill="rgb(204, 204, 204)" fill-opacity="0.25" points="1310.381,3467.720 1178.112,3011.276 1063.601,3532.148 " />
<polygon stroke="black" stroke-width="1" fill="rgb(204, 204, 204)" fill-opacity="0.25" points="1178.112,3011.276 756.776,3096.994 1063.601,3532.148 " />
<polygon stroke="black" stroke-width="1" fill="rgb(204, 204, 204)" fill-opacity="0.25" points="756.776,3096.994 488.968,2466.483 205.625,2903.725 " />
<polygon stroke="black" stroke-width="1" fill="rgb(204, 204, 204)" fill-opacity="0.25" points="945.337,2599.609 488.968,2466.483 756.776,3096.994 " />
<polygon stroke="black" stroke-width="1" fill="rgb(204, 204, 204)" fill-opacity="0.25" points="2613.444,1837.307 2504.970,1518.609 2071.694,1612.451 " />
<polygon stroke="black" stroke-width="1" fill="rgb(204, 204, 204)" fill-opacity="0.25" points="1721.716,3155.229 2078.401,2530.563 1761.189,2377.339 " />
<polygon stroke="black" stroke-width="1" fill="rgb(204, 204, 204)" fill-opacity="0.25" points="2082.856,3171.009 2078.401,2530.563 1721.716,3155.229 " />
<polygon stroke="black" stroke-width="1" fill="rgb(204, 204, 204)" fill-opacity="0.25" points="1819.862,241.101 2081.978,564.646 2236.030,486.180 " />
<polygon stroke="black" stroke-width="1" fill="rgb(204, 204, 204)" fill-opacity="0.25" points="2107.539,72.263 1819.862,241.101 2236.030,486.180 " />
<polygon stroke="black" stroke-width="1" fill="rgb(204, 204, 204)" fill-opacity="0.25" points="1819.862,241.101 1835.152,843.110 2081.978,564.646 " />
<polygon stroke="black" stroke-width="1" fill="rgb(204, 204, 204)" fill-opacity="0.25" points="2853.832,2352.788 2642.994,2551.655 3205.048,2690.975 " />
<polygon stroke="black" stroke-width="1" fill="rgb(204, 204, 204)" fill-opacity="0.25" points="1178.112,3011.276 945.337,2599.609 756.776,3096.994 " />
<polygon stroke="black" stroke-width="1" fill="rgb(204, 204, 204)" fill-opacity="0.25" points="2613.444,1837.307 2747.311,1674.217 2504.970,1518.609 " />
<polygon stroke="black" stroke-width="1" fill="rgb(204, 204, 204)" fill-opacity="0.25" points="488.968,2466.483 830.246,2186.868 404.163,2273.281 " />
<polygon stroke="black" stroke-width="1" fill="rgb(204, 204, 204)" fill-opacity="0.25" points="945.337,2599.609 830.246,2186.868 488.968,2466.483 " />
<polygon stroke="black" stroke-width="1" fill="rgb(204, 204, 204)" fill-opacity="0.25" points="2281.767,3729.427 2516.849,3363.708 2082.856,3171.009 " />
<polygon stroke="black" stroke-width="1" fill="rgb(204, 204, 204)" fill-opacity="0.25" points="2516.849,3363.708 2547.659,2797.147 2082.856,3171.009 " />
<polygon stroke="black" stroke-width="1" fill="rgb(204, 204, 204)" fill-opacity="0.25" points="2547.659,2797.147 2078.401,2530.563 2082.856,3171.009 " />
<polygon stroke="black" stroke-width="1" fill="rgb(204, 204, 204)" fill-opacity="0.25" points="2623.104,3446.422 2857.796,3963.007 3223.057,3738.984 3017.722,3125.101 " />
<polygon stroke="black" stroke-width="1" fill="rgb(204, 204, 204)" fill-opacity="0.25" points="2547.659,2797.147 2547.659,2271.551 2078.401,2530.563 " />
<polygon stroke="black" stroke-width="1" fill="rgb(204, 204, 204)" fill-opacity="0.25" points="1468.178,261.566 1468.178,797.561 1835.152,843.110 1819.862,241.101 " />
<polygon stroke="black" stroke-width="1" fill="rgb(204, 204, 204)" fill-opacity="0.25" points="2623.104,3446.422 3017.722,3125.101 2621.645,2920.829 " />
<polygon stroke="black" stroke-width="1" fill="rgb(204, 204, 204)" fill-opacity="0.25" points="3375.619,3291.347 3375.619,2816.125 3017.722,3125.101 " />
<polygon stroke="black" stroke-width="1" fill="rgb(204, 204, 204)" fill-opacity="0.25" points="3017.722,3125.101 3223.057,3738.984 3375.619,3291.347 " />
<polygon stroke="black" stroke-width="1" fill="rgb(204, 204, 204)" fill-opacity="0.25" points="188.532,1216.933 36.993,1444.920 183.347,1448.240 219.586,1415.683 " />
<polygon stroke="black" stroke-width="1" fill="rgb(204, 204, 204)" fill-opacity="0.25" points="452.683,1684.969 673.932,1338.254 437.808,1435.726 " />
<polygon stroke="black" stroke-width="1" fill="rgb(204, 204, 204)" fill-opacity="0.25" points="183.559,1463.466 45.405,1511.881 303.564,1646.253 246.540,1497.235 " />
<polygon stroke="black" stroke-width="1" fill="rgb(204, 204, 204)" fill-opacity="0.25" points="673.932,1338.254 452.683,1684.969 600.876,1763.898 " />
<polygon stroke="black" stroke-width="1" fill="rgb(204, 204, 204)" fill-opacity="0.25" points="3133.132,2171.230 3769.916,2197.565 3619.560,1706.327 3039.590,1567.358 " />
<polygon stroke="black" stroke-width="1" fill="rgb(204, 204, 204)" fill-opacity="0.25" points="2621.645,2920.829 3017.722,3125.101 3205.048,2690.975 2642.994,2551.655 " />
<polygon stroke="black" stroke-width="1" fill="rgb(204, 204, 204)" fill-opacity="0.25" points="1394.192,3948.031 1310.381,3467.720 1063.601,3532.148 962.584,3963.007 " />
<polygon stroke="black" stroke-width="1" fill="rgb(204, 204, 204)" fill-opacity="0.25" points="328.236,954.521 36.993,1041.675 188.532,1216.933 " />
<polygon stroke="black" stroke-width="1" fill="rgb(204, 204, 204)" fill-opacity="0.25" points="407.142,2086.985 334.976,1951.140 61.392,1960.834 236.209,2112.882 " />
<polygon stroke="black" stroke-width="1" fill="rgb(204, 204, 204)" fill-opacity="0.25" points="219.586,1415.683 274.685,1455.699 437.808,1435.726 188.532,1216.933 " />
<polygon stroke="black" stroke-width="1" fill="rgb(204, 204, 204)" fill-opacity="0.25" points="437.808,1435.726 274.685,1455.699 246.540,1497.235 303.564,1646.253 " />
<polygon stroke="black" stroke-width="1" fill="rgb(204, 204, 204)" fill-opacity="0.25" points="407.142,2086.985 600.876,1763.898 452.683,1684.969 334.976,1951.140 " />
<polygon stroke="black" stroke-width="1" fill="rgb(204, 204, 204)" fill-opacity="0.25" points="673.932,1338.254 328.236,954.521 188.532,1216.933 437.808,1435.726 " />

</svg>
